# xmcd
#
# Track frame offsets: 
#        150
#        3852
#        16948
#        32879
#        49864
#        67172
#        81537
#        99439
#        119852
#        129304
#        145613
#        161032
#
# Disc length: 2362 seconds
#
# Revision: 0
# Processed by: cddbd v1.5.1PL2 Copyright (c) Steve Scherf et al.
# Submitted via: ExactAudioCopy v0.95b4
#
DISCID=a309380c
DTITLE=Jagged Edge - J.E. Heartbreak
DYEAR=1900
DGENRE=R&B
TTITLE0=Heartbreak
TTITLE1=Did she say
TTITLE2=He can't love u
TTITLE3=What you tryin' to do
TTITLE4=Girl is mine
TTITLE5=Healing
TTITLE6=Let's get married
TTITLE7=True man
TTITLE8=Can I get with you
TTITLE9=Promise
TTITLE10=Keys to the range
TTITLE11=Lace you
EXTD=
EXTT0=
EXTT1=
EXTT2=
EXTT3=
EXTT4=
EXTT5=
EXTT6=
EXTT7=
EXTT8=
EXTT9=
EXTT10=
EXTT11=
PLAYORDER=
